<?xml version="1.0"?>
<svg width="485.213" height="485.212" xmlns="http://www.w3.org/2000/svg" xmlns:svg="http://www.w3.org/2000/svg" enable-background="new 0 0 485.213 485.212" version="1.1" xml:space="preserve">
 <g class="layer">
  <title>Layer 1</title>
  <g id="svg_1">
   <path d="m363.91,212.28l0,-90.98c0,-66.87 -54.4,-121.3 -121.3,-121.3c-66.89,0 -121.31,54.43 -121.31,121.3l0,90.98c-33.49,0 -60.65,27.16 -60.65,60.65l0,151.63c0,33.5 27.16,60.65 60.65,60.65l242.61,0c33.49,0 60.65,-27.15 60.65,-60.65l0,-151.63c0,-33.49 -27.16,-60.65 -60.65,-60.65zm-106.14,146.98l0,50.14c0,8.38 -6.78,15.16 -15.16,15.16c-8.39,0 -15.17,-6.78 -15.17,-15.16l0,-50.14c-8.9,-5.27 -15.16,-14.57 -15.16,-25.68c0,-16.76 13.58,-30.32 30.33,-30.32c16.74,0 30.32,13.56 30.32,30.32c0,11.11 -6.26,20.41 -15.16,25.68zm45.48,-146.98l-121.3,0l0,-90.98c0,-33.46 27.2,-60.65 60.66,-60.65c33.43,0 60.64,27.19 60.64,60.65l0,90.98z" fill="#ffffff" id="svg_2"/>
  </g>
  <g id="svg_3"/>
  <g id="svg_4"/>
  <g id="svg_5"/>
  <g id="svg_6"/>
  <g id="svg_7"/>
  <g id="svg_8"/>
  <g id="svg_9"/>
  <g id="svg_10"/>
  <g id="svg_11"/>
  <g id="svg_12"/>
  <g id="svg_13"/>
  <g id="svg_14"/>
  <g id="svg_15"/>
  <g id="svg_16"/>
  <g id="svg_17"/>
 </g>
</svg>