<?xml version="1.0" standalone="no"?>
<!DOCTYPE svg PUBLIC "-//W3C//DTD SVG 20010904//EN"
 "http://www.w3.org/TR/2001/REC-SVG-20010904/DTD/svg10.dtd">
<svg version="1.0" xmlns="http://www.w3.org/2000/svg"
 width="32.000000pt" height="51.000000pt" viewBox="0 0 32.000000 51.000000"
 preserveAspectRatio="xMidYMid meet">

<g transform="translate(0.000000,51.000000) scale(0.100000,-0.100000)"
fill="#000000" stroke="none">
<path d="M110 501 c-67 -14 -110 -52 -110 -98 0 -20 5 -23 40 -23 28 0 40 4
40 14 0 46 101 65 140 26 11 -11 20 -27 20 -35 0 -30 -48 -64 -119 -85 -89
-27 -121 -61 -121 -125 0 -93 44 -129 155 -129 75 0 126 19 145 53 5 11 10 87
10 175 0 151 -1 155 -25 184 -32 38 -108 56 -175 43z m109 -377 c-14 -16 -91
-19 -120 -4 -24 13 -26 72 -3 91 9 8 42 23 73 34 l56 20 3 -63 c2 -38 -2 -69
-9 -78z"/>
</g>
</svg>
